/* XPM */
static char *_b49829c05a042d2ad1cd1a82baab903VZ2AdYy515vMMGwc[] = {
/* columns rows colors chars-per-pixel */
"24 24 23 1 ",
"  c None",
". c #3C3745",
"X c #3D3846",
"o c #3E3947",
"O c #3F3A48",
"+ c #403B49",
"@ c #413C4A",
"# c #423D4B",
"$ c #FC4C5D",
"% c #FD4C5D",
"& c #FD4D5E",
"* c #FD4E5E",
"= c #FD4E5F",
"- c #FD4F5F",
"; c #FD4F60",
": c #FD5060",
"> c #FD5061",
", c #FD5161",
"< c #FD5162",
"1 c #FD5262",
"2 c #FD5263",
"3 c #FD5465",
"4 c #FD5565",
/* pixels */
"                        ",
"                        ",
"                        ",
"                        ",
"     :$::       ++X     ",
"     :$$;:     O..+     ",
"      :$$$    @X.+      ",
"       ;$$$    XX       ",
"        ;$$:   ##       ",
"        :$$;            ",
"         :$$;           ",
"          $$%;          ",
"          $$$$:         ",
"         $$$$$;         ",
"        :$%;;%%;        ",
"       :$$;  ;%%:       ",
"       ;$$    ;%$2      ",
"      ;$$:    :$$$      ",
"     $%%;      ;$$;     ",
"    4;;;        ;;;4    ",
"                        ",
"                        ",
"                        ",
"                        "
};
